####
#
# OBJ File Generated by Meshlab
#
####
# Object tong.obj
#
# Vertices: 40
# Faces: 76
#
####
vn 0.313380 3.141094 3.125923
v 0.031750 0.019050 0.020422
vn -1.414496 1.471128 1.563001
v 0.000000 0.019050 0.023597
vn 0.313380 -3.141094 3.125923
v 0.031750 0.000000 0.020422
vn -1.414496 -1.471128 1.563001
v 0.000000 0.000000 0.023597
vn 0.191052 3.220131 3.133351
v 0.170880 0.019050 0.006439
vn 0.191052 -3.220131 3.133348
v 0.170880 0.000000 0.006439
vn 1.405844 1.570794 -1.719995
v 0.203200 0.019050 0.000000
vn 2.779148 2.356198 0.837011
v 0.203517 0.019050 0.003159
vn 1.405844 -1.570793 -1.719994
v 0.203200 0.000000 0.000000
vn 2.779147 -2.356198 0.837011
v 0.203517 0.000000 0.003159
vn -1.727876 1.670970 -1.562923
v 0.000000 0.019050 0.020422
vn -1.727876 -1.670970 -1.562923
v 0.000000 0.000000 0.020422
vn 0.222144 4.712395 2.210308
v 0.178245 0.019050 0.005699
vn -1.889680 3.220126 2.506689
v 0.172741 0.019050 0.007000
vn 0.222144 1.570798 2.210308
v 0.175403 0.019050 0.009176
vn 0.222139 1.570794 2.210305
v 0.200676 0.019050 0.006636
vn 0.222139 4.712391 2.210304
v 0.197199 0.019050 0.003794
vn -0.665094 3.298659 3.060473
v 0.171673 0.019050 0.006484
vn -1.135648 3.298673 2.918755
v 0.172055 0.019050 0.006599
vn -1.578279 3.298687 2.705153
v 0.172414 0.019050 0.006773
vn 0.222149 4.712393 2.210302
v 0.184563 0.019050 0.005064
vn 0.222144 1.570798 2.210308
v 0.188040 0.019050 0.007906
vn 0.222144 4.712388 2.210308
v 0.190881 0.019050 0.004429
vn 0.222144 1.570798 2.210308
v 0.194358 0.019050 0.007271
vn 0.222149 1.570793 2.210302
v 0.181721 0.019050 0.008541
vn -0.178153 3.298677 3.126833
v 0.171278 0.019050 0.006431
vn 0.222144 -1.570798 2.210308
v 0.194358 0.000000 0.007271
vn 0.222144 -4.712388 2.210308
v 0.190881 0.000000 0.004429
vn 0.222139 -4.712391 2.210304
v 0.197199 0.000000 0.003794
vn 0.222139 -1.570794 2.210305
v 0.200676 0.000000 0.006636
vn 0.222144 -1.570798 2.210308
v 0.188040 0.000000 0.007906
vn 0.222149 -4.712393 2.210302
v 0.184563 0.000000 0.005064
vn 0.222149 -1.570793 2.210302
v 0.181721 0.000000 0.008541
vn 0.222144 -4.712396 2.210308
v 0.178245 0.000000 0.005699
vn 0.222143 -1.570798 2.210308
v 0.175403 0.000000 0.009176
vn -1.889681 -3.220126 2.506691
v 0.172741 0.000000 0.007000
vn -1.578279 -3.298687 2.705154
v 0.172414 0.000000 0.006773
vn -1.135648 -3.298673 2.918756
v 0.172055 0.000000 0.006599
vn -0.665093 -3.298659 3.060472
v 0.171673 0.000000 0.006484
vn -0.178152 -3.298677 3.126834
v 0.171278 0.000000 0.006431
# 40 vertices, 0 vertices normals

f 1//1 2//2 3//3
f 3//3 2//2 4//4
f 5//5 1//1 6//6
f 6//6 1//1 3//3
f 7//7 8//8 9//9
f 9//9 8//8 10//10
f 11//11 7//7 12//12
f 12//12 7//7 9//9
f 2//2 11//11 4//4
f 4//4 11//11 12//12
f 13//13 7//7 11//11
f 14//14 15//15 13//13
f 16//16 8//8 17//17
f 17//17 8//8 7//7
f 18//18 19//19 13//13
f 13//13 19//19 20//20
f 13//13 20//20 14//14
f 21//21 22//22 23//23
f 24//24 17//17 23//23
f 23//23 17//17 7//7
f 23//23 7//7 21//21
f 21//21 7//7 13//13
f 21//21 13//13 25//25
f 2//2 1//1 11//11
f 11//11 1//1 5//5
f 11//11 5//5 13//13
f 13//13 5//5 26//26
f 13//13 26//26 18//18
f 27//27 28//28 29//29
f 29//29 28//28 9//9
f 29//29 9//9 30//30
f 30//30 9//9 10//10
f 28//28 31//31 32//32
f 32//32 33//33 34//34
f 35//35 36//36 34//34
f 34//34 36//36 37//37
f 34//34 37//37 38//38
f 3//3 4//4 12//12
f 38//38 39//39 34//34
f 34//34 39//39 40//40
f 34//34 40//40 6//6
f 28//28 32//32 9//9
f 9//9 32//32 34//34
f 9//9 34//34 12//12
f 12//12 34//34 6//6
f 12//12 6//6 3//3
f 30//30 10//10 16//16
f 16//16 10//10 8//8
f 29//29 30//30 17//17
f 17//17 30//30 16//16
f 27//27 29//29 24//24
f 24//24 29//29 17//17
f 28//28 27//27 23//23
f 23//23 27//27 24//24
f 31//31 28//28 22//22
f 22//22 28//28 23//23
f 32//32 31//31 21//21
f 21//21 31//31 22//22
f 33//33 32//32 25//25
f 25//25 32//32 21//21
f 34//34 33//33 13//13
f 13//13 33//33 25//25
f 35//35 34//34 15//15
f 15//15 34//34 13//13
f 36//36 35//35 14//14
f 14//14 35//35 15//15
f 36//36 14//14 37//37
f 37//37 14//14 20//20
f 37//37 20//20 38//38
f 38//38 20//20 19//19
f 38//38 19//19 39//39
f 39//39 19//19 18//18
f 39//39 18//18 40//40
f 40//40 18//18 26//26
f 40//40 26//26 6//6
f 6//6 26//26 5//5
# 76 faces, 0 coords texture

# End of File
